<?xml version="1.0" encoding="UTF-8"?>
<svg width="40px" height="40px" viewBox="0 0 40 40" version="1.1" xmlns="http://www.w3.org/2000/svg" xmlns:xlink="http://www.w3.org/1999/xlink">
    <title>时间进行中</title>
    <g id="页面-1" stroke="none" stroke-width="1" fill="none" fill-rule="evenodd">
        <g id="画板" transform="translate(-557.000000, -285.000000)">
            <g id="时间进行中" transform="translate(557.000000, 285.000000)">
                <circle id="椭圆形" stroke="#FFFFFF" stroke-width="2" fill="#4568F4" cx="20" cy="20" r="14"></circle>
                <g id="时间" transform="translate(11.000000, 11.000000)" fill="#FFFFFF" fill-rule="nonzero">
                    <path d="M9,0 C13.9634037,0 18,4.03659634 18,9 C18,13.9634037 13.9634037,18 9,18 C4.03659634,18 0,13.9634037 0,9 C0,8.73947746 0.211113097,8.52836436 0.471635642,8.52836436 C0.732158187,8.52836436 0.943271283,8.73947746 0.943271283,9 C0.943271283,13.4438675 4.55765313,17.0597408 9,17.0597408 C13.4423469,17.0597408 17.0567287,13.4453882 17.0567287,9.00152065 C17.0567287,4.55768237 13.4423469,0.943300527 9,0.943300527 C7.23323791,0.943300527 5.55780259,1.50327427 4.15038195,2.56033701 C3.86889782,2.77145011 3.60687802,3.0065193 3.35533901,3.25356654 L3.35533901,3.25356654 L4.78072673,3.24608026 C5.04274653,3.24608026 5.25385963,3.4556961 5.25535688,3.71472139 C5.25685414,3.97524394 5.0472383,4.18785429 4.78671575,4.18935155 L4.78671575,4.18935155 L2.05871531,4.20432411 C1.92995129,4.20432411 1.81017081,4.15491466 1.72183271,4.06657655 C1.6334946,3.97823845 1.58408516,3.85696071 1.58408516,3.73119121 L1.58408516,3.73119121 L1.59905772,0.67529755 C1.60055497,0.416272261 1.81166807,0.206656421 2.07069336,0.206656421 L2.07069336,0.206656421 C2.33421042,0.208153677 2.54382626,0.420764029 2.542329,0.681286574 L2.542329,0.681286574 L2.53334546,2.75947791 C2.86124453,2.4196008 3.20561341,2.0961935 3.58292192,1.81171486 C5.15504073,0.625888102 7.02662243,0 9,0 Z M7.97457602,4.23529412 C8.28411053,4.23529412 8.53468609,4.52274662 8.53736604,4.87974408 L8.53736604,4.87974408 L8.56550554,9.44345099 L11.3861555,11.509709 C11.6474509,11.701344 11.7265095,12.1016139 11.5590124,12.4045209 C11.4518143,12.5992467 11.2695776,12.7058824 11.0833209,12.7058824 C10.9801427,12.7058824 10.8756246,12.673428 10.7818262,12.6054285 L10.7818262,12.6054285 L7.70256085,10.3490568 C7.54042372,10.2300576 7.44260546,10.0260591 7.44260546,9.80660608 L7.44260546,9.80660608 L7.41176471,4.88901674 C7.40910605,4.53047384 7.65968161,4.238385 7.97055609,4.23529412 L7.97055609,4.23529412 Z" id="形状结合"></path>
                </g>
                <circle id="椭圆形备份-2" stroke="#4568F4" cx="20" cy="20" r="19.5"></circle>
            </g>
        </g>
    </g>
</svg>