<?xml version="1.0" standalone="no"?><!DOCTYPE svg PUBLIC "-//W3C//DTD SVG 1.1//EN" "http://www.w3.org/Graphics/SVG/1.1/DTD/svg11.dtd"><svg class="icon" width="200px" height="200.00px" viewBox="0 0 1024 1024" version="1.1" xmlns="http://www.w3.org/2000/svg"><path d="M0 0h1024v1024H0z" fill="#FFFFFF" /><path d="M885.333333 768v149.333333a32 32 0 0 1-32 32H170.666667A32 32 0 0 1 138.666667 917.333333v-149.333333h746.666666z m-618.666666-693.333333V426.666667l0.128 2.816a32 32 0 0 0 48.213333 24.682666l91.157333-54.186666 89.258667 54.058666A32 32 0 0 0 544 426.666667V74.666667H853.333333A32 32 0 0 1 885.333333 106.666667v597.333333h-746.666666V106.666667a32 32 0 0 1 28.928-31.850667L170.666667 74.666667h96z m213.333333 0.085333v295.104l-57.088-34.56-3.114667-1.664a32 32 0 0 0-29.824 1.536l-59.306666 35.221333V74.752h149.333333z" fill="#111111" /></svg>