<?xml version="1.0" standalone="no"?><!DOCTYPE svg PUBLIC "-//W3C//DTD SVG 1.1//EN" "http://www.w3.org/Graphics/SVG/1.1/DTD/svg11.dtd"><svg class="icon" width="200px" height="200.00px" viewBox="0 0 1024 1024" version="1.1" xmlns="http://www.w3.org/2000/svg"><path d="M0 0h1024v1024H0z" fill="#FFFFFF" /><path d="M85.333333 85.333333h853.333334v853.333334H85.333333z" fill="#FFFFFF" /><path d="M512 53.333333c253.312 0 458.666667 205.354667 458.666667 458.666667S765.312 970.666667 512 970.666667 53.333333 765.312 53.333333 512 258.688 53.333333 512 53.333333z m0 170.666667c-159.061333 0-288 128.938667-288 288S352.938667 800 512 800 800 671.061333 800 512 671.061333 224 512 224z" fill="#111111" /><path d="M601.642667 603.370667l84.928 49.002666a223.765333 223.765333 0 0 1-142.570667 81.365334V635.946667a127.829333 127.829333 0 0 0 57.642667-32.597334z m-121.664 32.597333v97.770667a223.786667 223.786667 0 0 1-143.146667-82.090667l84.821333-48.96a127.850667 127.850667 0 0 0 58.325334 33.28zM512 426.666667a85.333333 85.333333 0 1 1 0 170.666666 85.333333 85.333333 0 0 1 0-170.666666z m224 85.333333c0 30.208-5.973333 59.008-16.810667 85.290667l-84.48-48.768A128.021333 128.021333 0 0 0 640 512c0-11.392-1.493333-22.442667-4.266667-32.96l84.821334-48.938667c9.962667 25.365333 15.445333 52.992 15.445333 81.898667z m-432.896-81.024l84.928 49.024a128.213333 128.213333 0 0 0 0.981333 67.584l-84.565333 48.853333A223.36 223.36 0 0 1 288 512c0-28.586667 5.333333-55.893333 15.104-81.024z m176.853333-140.714667l0.021334 97.770667a127.914667 127.914667 0 0 0-60.949334 35.968l-84.48-48.746667a223.829333 223.829333 0 0 1 145.429334-84.992z m208.874667 84.224l-84.544 48.810667A127.893333 127.893333 0 0 0 544 388.053333v-97.770666a223.808 223.808 0 0 1 144.810667 84.224z" fill="#111111" /></svg>