<?xml version="1.0" standalone="no"?><!DOCTYPE svg PUBLIC "-//W3C//DTD SVG 1.1//EN" "http://www.w3.org/Graphics/SVG/1.1/DTD/svg11.dtd"><svg class="icon" width="200px" height="200.00px" viewBox="0 0 1024 1024" version="1.1" xmlns="http://www.w3.org/2000/svg"><path d="M0 0h1024v1024H0z" fill="#FFFFFF" /><path d="M938.666667 160A32 32 0 0 1 970.666667 192v640a32 32 0 0 1-32 32H85.333333A32 32 0 0 1 53.333333 832V192A32 32 0 0 1 85.333333 160zM810.666667 661.333333H213.333333v64h597.333334v-64zM384 298.666667a85.333333 85.333333 0 0 0-44.224 158.293333C295.722667 475.477333 262.826667 520.874667 256 576h256c-6.826667-55.125333-39.722667-100.522667-83.754667-119.018667A85.333333 85.333333 0 0 0 384 298.666667z m426.666667 192H597.333333v64h213.333334v-64z m0-170.666667H597.333333v64h213.333334v-64z" fill="#111111" /></svg>