<?xml version="1.0" standalone="no"?><!DOCTYPE svg PUBLIC "-//W3C//DTD SVG 1.1//EN" "http://www.w3.org/Graphics/SVG/1.1/DTD/svg11.dtd"><svg class="icon" width="200px" height="200.00px" viewBox="0 0 1024 1024" version="1.1" xmlns="http://www.w3.org/2000/svg"><path d="M73.142857 0h877.714286v877.714286H73.142857z" fill="#FFFFFF" /><path d="M512 82.285714l6.582857 0.036572c123.977143 1.261714 203.702857 38.473143 203.702857 121.417143 0 29.494857-11.209143 57.179429-31.195428 80.731428l-2.285715 2.56 2.011429 1.444572c83.401143 60.342857 138.788571 158.043429 141.110857 253.842285L832 548.571429c0 149.339429-142.939429 246.857143-320 246.857142S192 697.910857 192 548.571429c0-97.773714 55.954286-198.436571 141.165714-260.096l2.011429-1.444572-2.267429-2.56c-18.870857-22.235429-29.915429-48.182857-31.085714-75.812571l-0.109714-4.900572C301.714286 119.332571 384.237714 82.285714 512 82.285714z m69.613714 284.470857l-69.266285 69.284572-69.266286-69.284572-38.784 38.802286 58.258286 58.258286H402.285714v54.857143h82.285715v39.186285H402.285714v54.857143h82.285715v66.614857h54.857142v-66.614857H621.714286v-54.857143h-82.285715v-39.186285H621.714286v-54.857143h-59.574857l58.276571-58.258286-38.802286-38.802286z" fill="#111111" /></svg>