<?xml version="1.0" standalone="no"?><!DOCTYPE svg PUBLIC "-//W3C//DTD SVG 1.1//EN" "http://www.w3.org/Graphics/SVG/1.1/DTD/svg11.dtd"><svg class="icon" width="200px" height="200.00px" viewBox="0 0 1024 1024" version="1.1" xmlns="http://www.w3.org/2000/svg"><path d="M0 0h1024v1024H0z" fill="#FFFFFF" /><path d="M501.504 55.018667a32 32 0 0 1 20.48 0l341.568 115.2A32 32 0 0 1 885.333333 200.533333v392.533334c0 116.8-120.533333 238.869333-357.44 373.418666a32 32 0 0 1-31.573333 0.021334C259.264 832.234667 138.666667 710.144 138.666667 593.066667V200.533333a32 32 0 0 1 21.76-30.314666z m180.992 227.605333H449.408v152.448h90.624v31.872h-107.136v48h39.936c-1.536 18.176-5.696 33.664-12.48 46.464a62.933333 62.933333 0 0 1-24.618667 25.941333l-3.989333 2.090667v56.064a94.229333 94.229333 0 0 0 35.328-14.4c11.008-7.296 20.608-16.64 28.8-28.032a147.349333 147.349333 0 0 0 19.776-39.36 163.2 163.2 0 0 0 7.893333-41.28l0.362667-7.488h16.128v136.32h51.84v-136.32h15.744c0.768 17.664 3.584 33.92 8.448 48.768a140.16 140.16 0 0 0 19.776 39.36c8.32 11.392 17.984 20.736 28.992 28.032 9.429333 6.250667 19.52 10.666667 30.293333 13.269333l5.418667 1.130667V589.44c-12.288-5.376-21.888-14.592-28.8-27.648-6.058667-11.413333-10.026667-24.810667-11.968-40.149333l-0.704-6.698667h40.32v-48h-107.52v-31.872h90.624v-152.448z m-256.512-9.216h-51.456c-1.28 11.52-3.2 22.912-5.76 34.176a208.042667 208.042667 0 0 1-10.176 32.448 161.792 161.792 0 0 1-15.168 28.8c-4.693333 7.061333-9.984 13.354667-15.850667 18.858667l-4.501333 3.989333v64.512c9.621333-5.333333 18.837333-11.541333 27.648-18.688l6.528-5.504v218.496h51.84V351.744c4.096-11.52 7.488-23.808 10.176-36.864 2.026667-9.792 3.776-20.010667 5.290667-30.677333l1.429333-10.794667z m204.672 57.216v56.448h-129.408v-56.448h129.408z" fill="#111111" /></svg>