<?xml version="1.0" standalone="no"?><!DOCTYPE svg PUBLIC "-//W3C//DTD SVG 1.1//EN" "http://www.w3.org/Graphics/SVG/1.1/DTD/svg11.dtd"><svg class="icon" width="200px" height="200.00px" viewBox="0 0 1024 1024" version="1.1" xmlns="http://www.w3.org/2000/svg"><path d="M0 0h1024v1024H0z" fill="#FFFFFF" /><path d="M512 53.333333c253.312 0 458.666667 205.354667 458.666667 458.666667S765.312 970.666667 512 970.666667 53.333333 765.312 53.333333 512 258.688 53.333333 512 53.333333z m199.296 217.770667L409.6 391.786667a32 32 0 0 0-17.813333 17.813333l-120.682667 301.696c-10.453333 26.133333 15.466667 52.053333 41.6 41.6L614.4 632.213333a32 32 0 0 0 17.813333-17.813333l120.682667-301.696c10.453333-26.133333-15.466667-52.053333-41.6-41.6z m-229.461333 210.730667a42.666667 42.666667 0 1 1 60.330666 60.330666 42.666667 42.666667 0 0 1-60.330666-60.330666z" fill="#111111" /></svg>