<?xml version="1.0" standalone="no"?><!DOCTYPE svg PUBLIC "-//W3C//DTD SVG 1.1//EN" "http://www.w3.org/Graphics/SVG/1.1/DTD/svg11.dtd"><svg class="icon" width="200px" height="200.00px" viewBox="0 0 1024 1024" version="1.1" xmlns="http://www.w3.org/2000/svg"><path d="M0 0h1024v1024H0z" fill="#FFFFFF" /><path d="M725.333333 110.506667a32 32 0 0 1 27.712 16l213.333334 369.493333a32 32 0 0 1 0 32l-213.333334 369.493333a32 32 0 0 1-27.712 16H298.666667a32 32 0 0 1-27.712-16l-213.333334-369.493333a32 32 0 0 1 0-32l213.333334-369.493333A32 32 0 0 1 298.666667 110.506667z m-339.648 195.946666l89.856 89.898667-79.189333 79.189333-89.877333-89.877333c-23.104 54.293333-12.608 119.381333 31.530666 163.52 44.138667 44.16 109.226667 54.634667 163.52 31.552l97.216 97.194667a56 56 0 1 0 79.189334-79.189334l-97.194667-97.237333c23.082667-54.293333 12.586667-119.36-31.552-163.498667-44.117333-44.138667-109.205333-54.613333-163.498667-31.552z" fill="#111111" /></svg>