<svg xmlns="http://www.w3.org/2000/svg" width="16" height="16" viewBox="0 0 1024 1024"><defs/><path fill="#1296db" d="M475.388 241.251c0.043-1.192 0.073-2.383 0.073-3.579C475.461 106.62 368.844 0 237.798 0 106.744 0 0.125 106.62 0.125 237.672c0 131.05 106.619 237.668 237.673 237.668h237.677l-0.121-232.815 0.034-1.274z m-54.779 177.883c0 0.455-0.18 0.892-0.505 1.213-0.32 0.323-0.758 0.504-1.211 0.504H237.711c-100.86 0-182.914-82.055-182.914-182.912 0-100.86 82.054-182.917 182.914-182.917 100.807 0.001 182.862 81.979 182.914 182.786l-0.105 4.424 0.089 176.902zM786.202 475.34c131.055 0 237.673-106.618 237.673-237.668C1023.875 106.62 917.256 0 786.202 0 655.156 0 548.539 106.62 548.539 237.672c0 1.196 0.03 2.387 0.073 3.579l0.034 1.274-0.121 232.815h237.677z m0.087-420.318c100.86 0 182.914 82.058 182.914 182.917 0 100.857-82.055 182.912-182.914 182.912H605.106c-0.452 0-0.89-0.181-1.21-0.504a1.703 1.703 0 0 1-0.505-1.213l0.089-176.902-0.105-4.424c0.052-100.807 82.107-182.785 182.914-182.786zM786.202 548.66H548.524l0.121 232.815-0.034 1.274a99.178 99.178 0 0 0-0.073 3.579C548.539 917.38 655.156 1024 786.202 1024c131.055 0 237.673-106.62 237.673-237.672 0-131.05-106.619-237.668-237.673-237.668z m0.087 420.318c-100.807-0.001-182.862-81.979-182.914-182.786l0.105-4.424-0.089-176.902c0-0.455 0.18-0.892 0.505-1.213 0.32-0.323 0.758-0.504 1.21-0.504h181.183c100.86 0 182.914 82.055 182.914 182.912 0.001 100.86-82.054 182.917-182.914 182.917zM237.798 548.66C106.743 548.66 0.125 655.277 0.125 786.328 0.125 917.38 106.744 1024 237.798 1024c131.045 0 237.663-106.62 237.663-237.672 0-1.195-0.03-2.387-0.073-3.579l-0.034-1.274 0.121-232.815H237.798z m-0.087 420.318c-100.86 0-182.914-82.057-182.914-182.917 0-100.857 82.054-182.912 182.914-182.912h181.183c0.452 0 0.891 0.181 1.211 0.504 0.325 0.321 0.505 0.758 0.505 1.213l-0.089 176.902 0.105 4.424c-0.053 100.807-82.108 182.785-182.915 182.786z"/></svg>