<svg xmlns="http://www.w3.org/2000/svg" width="128" height="128" viewBox="0 0 1024 1024"><defs/><path fill="#3F89F0" d="M702.6176 717.6192a102.4 102.4 0 1 0-36.1984 36.1984l53.504 53.504a25.6 25.6 0 0 0 36.1984-36.1984l-53.504-53.504zM153.6 0h716.8a51.2 51.2 0 0 1 51.2 51.2v921.6a51.2 51.2 0 0 1-51.2 51.2H153.6a51.2 51.2 0 0 1-51.2-51.2V51.2a51.2 51.2 0 0 1 51.2-51.2z m128 256a25.6 25.6 0 0 0 0 51.2h460.8a25.6 25.6 0 1 0 0-51.2h-460.8z m0 153.6a25.6 25.6 0 0 0 0 51.2h460.8a25.6 25.6 0 1 0 0-51.2h-460.8z m0 153.6a25.6 25.6 0 1 0 0 51.2h153.6a25.6 25.6 0 1 0 0-51.2h-153.6z m0 153.6a25.6 25.6 0 1 0 0 51.2h102.4a25.6 25.6 0 1 0 0-51.2h-102.4z m332.8 0a51.2 51.2 0 1 0 0-102.4 51.2 51.2 0 0 0 0 102.4z"/></svg>